<svg xmlns="http://www.w3.org/2000/svg">
    
    <symbol id="icon-search"  viewBox="0 0 17 18"  xmlns="http://www.w3.org/2000/svg">
        <path d="M11.9276 12.7748L15.37 17.0644" stroke="white" stroke-linecap="round"/>
        <circle cx="8.48533" cy="8.48526" r="5.5" transform="rotate(-38.7469 8.48533 8.48526)" stroke="white"/>
    </symbol>
    <symbol id="icon-watch"  viewBox="0 0 12 12"  xmlns="http://www.w3.org/2000/svg">
        <circle cx="6" cy="6" r="5.5" stroke="#696969"/>
        <path d="M4 6H6.5V2.5" stroke="#696969"/>
    </symbol>
    <symbol id="icon-like"  viewBox="0 0 16 14"  xmlns="http://www.w3.org/2000/svg">
        <path d="M8.34372 2.25572H8.36529C9.29718 1.44175 11.7563 0.165765 13.9565 1.76734C17.3111 4.20921 14.2458 9.5 8.36529 13H8.34372M8.34378 2.25572H8.32221C7.39032 1.44175 4.93121 0.165765 2.73102 1.76734C-0.623552 4.20921 2.44172 9.5 8.32221 13H8.34378"/>
    </symbol>
    <symbol id="icon-note"  viewBox="0 0 20 19"  xmlns="http://www.w3.org/2000/svg">
        <path d="M8 16V1.9697L19 1V13" stroke="#4E4E4E"/>
        <ellipse cx="4.5" cy="16" rx="3.5" ry="2" stroke="#4E4E4E"/>
        <ellipse cx="15.5" cy="13" rx="3.5" ry="2" stroke="#4E4E4E"/>
    </symbol>
    <symbol id="icon-volume" fill="none" viewBox="0 0 14 18" xmlns="http://www.w3.org/2000/svg">
        <mask id="path-1-inside-1_2985_507" fill="white">
        <path fill-rule="evenodd" clip-rule="evenodd" d="M8 0L3 5H0V13H3L8 18V0Z"/>
        </mask>
        <path d="M3 5V6H3.41421L3.70711 5.70711L3 5ZM8 0H9V-2.41421L7.29289 -0.707107L8 0ZM0 5V4H-1V5H0ZM0 13H-1V14H0V13ZM3 13L3.70711 12.2929L3.41421 12H3V13ZM8 18L7.29289 18.7071L9 20.4142V18H8ZM3.70711 5.70711L8.70711 0.707107L7.29289 -0.707107L2.29289 4.29289L3.70711 5.70711ZM0 6H3V4H0V6ZM1 13V5H-1V13H1ZM3 12H0V14H3V12ZM8.70711 17.2929L3.70711 12.2929L2.29289 13.7071L7.29289 18.7071L8.70711 17.2929ZM7 0V18H9V0H7Z" fill="white" mask="url(#path-1-inside-1_2985_507)"/>
        <path d="M11 13C12.1046 13 13 11.2091 13 9C13 6.79086 12.1046 5 11 5" stroke="white"/>
    </symbol>
    <symbol id="icon-dislike"  viewBox="0 0 16 15"  xmlns="http://www.w3.org/2000/svg">
        <path d="M8.34372 3.25572H8.36529C9.29718 2.44175 11.7563 1.16576 13.9565 2.76734C17.3111 5.20921 14.2458 10.5 8.36529 14H8.34372M8.34378 3.25572H8.32221C7.39032 2.44175 4.93121 1.16576 2.73102 2.76734C-0.623552 5.20921 2.44172 10.5 8.32221 14H8.34378" />
        <path d="M1 1L15 13.5" />
    </symbol>
    <symbol id="icon-prev" viewBox="0 0 16 14"  xmlns="http://www.w3.org/2000/svg">
        <path d="M1 2V12.5" stroke="white"/>
        <path d="M3 7L12.75 0.937823L12.75 13.0622L3 7Z" fill="#D9D9D9"/>
    </symbol>
    <symbol id="icon-play" viewBox="0 0 15 20"  xmlns="http://www.w3.org/2000/svg">
        <path d="M15 10L-1.01012e-06 0.47372L-1.84293e-06 19.5263L15 10Z" fill="#D9D9D9"/>
    </symbol>
    <symbol id="icon-pause" viewBox="0 0 15 19" fill="none" xmlns="http://www.w3.org/2000/svg">
        <path d="M0 0h5v19H0z" fill="#D9D9D9"/>
        <path d="M10 0h5v19h-5z" fill="#D9D9D9"/>
    </symbol>
    <symbol id="icon-next" viewBox="0 0 16 14"  xmlns="http://www.w3.org/2000/svg">
        <path d="M15 2V12.5" stroke="white"/>
        <path d="M13 7L3.25 0.937823L3.25 13.0622L13 7Z" fill="#D9D9D9"/>
    </symbol>
    <symbol id="icon-repeat" viewBox="0 0 20 18"  xmlns="http://www.w3.org/2000/svg">
        <path d="M10 3L5 0.113249V5.88675L10 3ZM7 14.5C3.96243 14.5 1.5 12.0376 1.5 9H0.5C0.5 12.5899 3.41015 15.5 7 15.5V14.5ZM1.5 9C1.5 5.96243 3.96243 3.5 7 3.5V2.5C3.41015 2.5 0.5 5.41015 0.5 9H1.5Z" fill="#696969"/>
        <path d="M10 15L15 17.8868V12.1132L10 15ZM13 3.5C16.0376 3.5 18.5 5.96243 18.5 9H19.5C19.5 5.41015 16.5899 2.5 13 2.5V3.5ZM18.5 9C18.5 12.0376 16.0376 14.5 13 14.5V15.5C16.5899 15.5 19.5 12.5899 19.5 9H18.5Z" fill="#696969"/>
    </symbol>
    <symbol id="icon-shuffle" viewBox="0 0 20 18"  xmlns="http://www.w3.org/2000/svg">
        <path d="M19.5 15L14.5 12.1132V17.8868L19.5 15ZM10.1632 12.0833L9.70863 12.2916L10.1632 12.0833ZM7.33683 5.91673L6.8823 6.12505L7.33683 5.91673ZM0.5 3.5H2.79151V2.5H0.5V3.5ZM6.8823 6.12505L9.70863 12.2916L10.6177 11.8749L7.79137 5.7084L6.8823 6.12505ZM14.7085 15.5H15V14.5H14.7085V15.5ZM9.70863 12.2916C10.6047 14.2466 12.5579 15.5 14.7085 15.5V14.5C12.949 14.5 11.3508 13.4745 10.6177 11.8749L9.70863 12.2916ZM2.79151 3.5C4.55105 3.5 6.14918 4.52552 6.8823 6.12505L7.79137 5.7084C6.89533 3.75341 4.94205 2.5 2.79151 2.5V3.5Z" fill="#696969"/>
        <path d="M19.5 3L14.5 5.88675V0.113249L19.5 3ZM10.1632 5.91673L9.70863 5.7084L10.1632 5.91673ZM7.33683 12.0833L6.8823 11.8749L7.33683 12.0833ZM0.5 14.5H2.79151V15.5H0.5V14.5ZM6.8823 11.8749L9.70863 5.7084L10.6177 6.12505L7.79137 12.2916L6.8823 11.8749ZM14.7085 2.5H15V3.5H14.7085V2.5ZM9.70863 5.7084C10.6047 3.75341 12.5579 2.5 14.7085 2.5V3.5C12.949 3.5 11.3508 4.52552 10.6177 6.12505L9.70863 5.7084ZM2.79151 14.5C4.55105 14.5 6.14918 13.4745 6.8823 11.8749L7.79137 12.2916C6.89533 14.2466 4.94205 15.5 2.79151 15.5V14.5Z" fill="#696969"/>
    </symbol>
    <symbol id='logout' width="40" height="40" viewBox="0 0 40 40" fill="none" xmlns="http://www.w3.org/2000/svg">
        <path d="M25.6711 16.046V14.7419C25.6711 13.2276 24.4435 12 22.9292 12H16.7419C15.2276 12 14 13.2276 14 14.7419V26.0645C14 27.5788 15.2276 28.8065 16.7419 28.8065H22.9292C24.4435 28.8065 25.6711 27.5788 25.6711 26.0645V24.6048M18.3572 20.3254H33.2963M33.2963 20.3254L30.1062 23.5155M33.2963 20.3254L30.1062 17.1353" stroke="white" stroke-linecap="round" stroke-linejoin="round"/>
        <circle cx="20" cy="20" r="19.5" stroke="white"/>
    </symbol>

    <symbol id="calendar" viewBox="0 0 18 18" xmlns="http://www.w3.org/2000/svg">
        <path d="M7.5 2.625C7.5 1.79657 6.82843 1.125 6 1.125C5.17157 1.125 4.5 1.79657 4.5 2.625C2.84315 2.625 1.5 3.96815 1.5 5.625H16.5C16.5 3.96815 15.1569 2.625 13.5 2.625C13.5 1.79657 12.8284 1.125 12 1.125C11.1716 1.125 10.5 1.79657 10.5 2.625H7.5Z" fill="#202020"/>
        <path fill-rule="evenodd" clip-rule="evenodd" d="M1.5 7.125H16.5V11.325C16.5 13.0052 16.5 13.8452 16.173 14.487C15.8854 15.0515 15.4265 15.5104 14.862 15.798C14.2202 16.125 13.3802 16.125 11.7 16.125H6.3C4.61984 16.125 3.77976 16.125 3.13803 15.798C2.57354 15.5104 2.1146 15.0515 1.82698 14.487C1.5 13.8452 1.5 13.0052 1.5 11.325V7.125ZM10.5 11.325C10.5 10.905 10.5 10.6949 10.5817 10.5345C10.6537 10.3934 10.7684 10.2787 10.9095 10.2067C11.0699 10.125 11.28 10.125 11.7 10.125H12.3C12.72 10.125 12.9301 10.125 13.0905 10.2067C13.2316 10.2787 13.3463 10.3934 13.4183 10.5345C13.5 10.6949 13.5 10.905 13.5 11.325V11.925C13.5 12.345 13.5 12.5551 13.4183 12.7155C13.3463 12.8566 13.2316 12.9713 13.0905 13.0433C12.9301 13.125 12.72 13.125 12.3 13.125H11.7C11.28 13.125 11.0699 13.125 10.9095 13.0433C10.7684 12.9713 10.6537 12.8566 10.5817 12.7155C10.5 12.5551 10.5 12.345 10.5 11.925V11.325Z" fill="#202020"/>
    </symbol>
    <symbol id="time" viewBox="0 0 18 18" xmlns="http://www.w3.org/2000/svg">
        <path fill-rule="evenodd" clip-rule="evenodd" d="M9 16.5C13.1421 16.5 16.5 13.1421 16.5 9C16.5 4.85786 13.1421 1.5 9 1.5C4.85786 1.5 1.5 4.85786 1.5 9C1.5 13.1421 4.85786 16.5 9 16.5ZM8.25 4.5V9C8.25 9.41421 8.58579 9.75 9 9.75H12.75V8.25H9.75V4.5H8.25Z" fill="#202020"/>
    </symbol>
    <symbol id="complexity" viewBox="0 0 18 18" xmlns="http://www.w3.org/2000/svg" aria-hidden="true">
    <path fill-rule="evenodd" clip-rule="evenodd" d="M15 2.625C15.2984 2.625 15.5845 2.74353 15.7955 2.9545C16.0065 3.16548 16.125 3.45163 16.125 3.75V14.25C16.125 14.5484 16.0065 14.8345 15.7955 15.0455C15.5845 15.2565 15.2984 15.375 15 15.375C14.7016 15.375 14.4155 15.2565 14.2045 15.0455C13.9935 14.8345 13.875 14.5484 13.875 14.25V3.75C13.875 3.45163 13.9935 3.16548 14.2045 2.9545C14.4155 2.74353 14.7016 2.625 15 2.625Z" fill="#D9D9D9"/>
        <path fill-rule="evenodd" clip-rule="evenodd" d="M12 4.875C12.2984 4.875 12.5845 4.99353 12.7955 5.2045C13.0065 5.41548 13.125 5.70163 13.125 6V14.25C13.125 14.5484 13.0065 14.8345 12.7955 15.0455C12.5845 15.2565 12.2984 15.375 12 15.375C11.7016 15.375 11.4155 15.2565 11.2045 15.0455C10.9935 14.8345 10.875 14.5484 10.875 14.25V6C10.875 5.70163 10.9935 5.41548 11.2045 5.2045C11.4155 4.99353 11.7016 4.875 12 4.875Z" fill="#D9D9D9"/>
        <path fill-rule="evenodd" clip-rule="evenodd" d="M9 7.125C9.29837 7.125 9.58452 7.24353 9.7955 7.4545C10.0065 7.66548 10.125 7.95163 10.125 8.25V14.25C10.125 14.5484 10.0065 14.8345 9.7955 15.0455C9.58452 15.2565 9.29837 15.375 9 15.375C8.70163 15.375 8.41548 15.2565 8.2045 15.0455C7.99353 14.8345 7.875 14.5484 7.875 14.25V8.25C7.875 7.95163 7.99353 7.66548 8.2045 7.4545C8.41548 7.24353 8.70163 7.125 9 7.125Z" fill="#00C1FF"/>
        <path fill-rule="evenodd" clip-rule="evenodd" d="M6 9.375C6.29837 9.375 6.58452 9.49353 6.7955 9.7045C7.00647 9.91548 7.125 10.2016 7.125 10.5V14.25C7.125 14.5484 7.00647 14.8345 6.7955 15.0455C6.58452 15.2565 6.29837 15.375 6 15.375C5.70163 15.375 5.41548 15.2565 5.2045 15.0455C4.99353 14.8345 4.875 14.5484 4.875 14.25V10.5C4.875 10.2016 4.99353 9.91548 5.2045 9.7045C5.41548 9.49353 5.70163 9.375 6 9.375Z" fill="#00C1FF"/>
        <path fill-rule="evenodd" clip-rule="evenodd" d="M3 11.625C3.29837 11.625 3.58452 11.7435 3.7955 11.9545C4.00647 12.1655 4.125 12.4516 4.125 12.75V14.25C4.125 14.5484 4.00647 14.8345 3.7955 15.0455C3.58452 15.2565 3.29837 15.375 3 15.375C2.70163 15.375 2.41548 15.2565 2.2045 15.0455C1.99353 14.8345 1.875 14.5484 1.875 14.25V12.75C1.875 12.4516 1.99353 12.1655 2.2045 11.9545C2.41548 11.7435 2.70163 11.625 3 11.625Z" fill="#00C1FF"/>
    </symbol>
    <symbol id="sparcle" viewBox="0 0 26 26" xmlns="http://www.w3.org/2000/svg">
       <path d="M12.4637 4.36751C12.6202 3.70443 12.6984 3.3729 12.8242 3.29823C12.9326 3.23392 13.0674 3.23392 13.1758 3.29823C13.3016 3.3729 13.3798 3.70443 13.5363 4.36751L14.2997 7.60302C14.5837 8.80636 14.7257 9.40803 15.0343 9.89596C15.3071 10.3274 15.6726 10.6929 16.104 10.9657C16.592 11.2743 17.1936 11.4163 18.397 11.7003L21.6325 12.4637C22.2956 12.6202 22.6271 12.6984 22.7018 12.8242C22.7661 12.9326 22.7661 13.0674 22.7018 13.1758C22.6271 13.3016 22.2956 13.3798 21.6325 13.5363L18.397 14.2997C17.1936 14.5837 16.592 14.7257 16.104 15.0343C15.6726 15.3071 15.3071 15.6726 15.0343 16.104C14.7257 16.592 14.5837 17.1936 14.2997 18.397L13.5363 21.6325C13.3798 22.2956 13.3016 22.6271 13.1758 22.7018C13.0674 22.7661 12.9326 22.7661 12.8242 22.7018C12.6984 22.6271 12.6202 22.2956 12.4637 21.6325L11.7003 18.397C11.4163 17.1936 11.2743 16.592 10.9657 16.104C10.6929 15.6726 10.3274 15.3071 9.89596 15.0343C9.40803 14.7257 8.80636 14.5837 7.60301 14.2997L4.36751 13.5363C3.70443 13.3798 3.3729 13.3016 3.29823 13.1758C3.23392 13.0674 3.23392 12.9326 3.29823 12.8242C3.3729 12.6984 3.70443 12.6202 4.36751 12.4637L7.60302 11.7003C8.80636 11.4163 9.40803 11.2743 9.89596 10.9657C10.3274 10.6929 10.6929 10.3274 10.9657 9.89596C11.2743 9.40803 11.4163 8.80636 11.7003 7.60301L12.4637 4.36751Z" fill="black" />
    </symbol>
    <symbol id="icon-add-circle" viewBox="0 0 32 32" xmlns="http://www.w3.org/2000/svg">
       <path fill-rule="evenodd" clip-rule="evenodd" d="M16 29.3333C23.3638 29.3333 29.3333 23.3638 29.3333 16C29.3333 8.63616 23.3638 2.66663 16 2.66663C8.63619 2.66663 2.66666 8.63616 2.66666 16C2.66666 23.3638 8.63619 29.3333 16 29.3333ZM14.6667 14.6666V9.33329H17.3333V14.6666H22.6667V17.3333H17.3333V22.6666H14.6667V17.3333H9.33332V14.6666H14.6667Z" fill="white"/>
    </symbol>
    <symbol id="icon-remove-circle" viewBox="0 0 32 32" xmlns="http://www.w3.org/2000/svg">
       <path fill-rule="evenodd" clip-rule="evenodd" d="M15.9998 29.3333C23.3636 29.3333 29.3332 23.3638 29.3332 16C29.3332 8.63616 23.3636 2.66663 15.9998 2.66663C8.63604 2.66663 2.6665 8.63616 2.6665 16C2.6665 23.3638 8.63604 29.3333 15.9998 29.3333ZM9.33317 14.6666V17.3333H22.6665V14.6666H9.33317Z" fill="white"/>
    </symbol>
</svg>